<svg xmlns="http://www.w3.org/2000/svg" width="232" height="31" viewBox="0 0 232 31" fill="none"><g clip-path="url(#clip0_111_187)"><path d="M15.2139 10.0649H26.1511C26.2882 10.0641 26.4193 10.0092 26.516 9.91204C26.6126 9.81489 26.6669 9.68343 26.6669 9.5464V7.23112C26.6672 7.16316 26.6542 7.0958 26.6284 7.03291C26.6026 6.97003 26.5647 6.91285 26.5168 6.86467C26.4689 6.81649 26.4119 6.77825 26.3491 6.75216C26.2864 6.72608 26.2191 6.71265 26.1511 6.71265H15.2441C10.416 6.71265 6.46576 10.7205 6.72362 15.5431C6.83797 17.6889 7.7701 19.7094 9.32836 21.1891C10.8866 22.6687 12.9526 23.4952 15.1014 23.4984H26.1511C26.2882 23.4977 26.4193 23.4428 26.516 23.3456C26.6126 23.2485 26.6669 23.117 26.6669 22.98V20.6537C26.6669 20.5167 26.6126 20.3852 26.516 20.2881C26.4193 20.1909 26.2882 20.136 26.1511 20.1352H15.1014C14.4314 20.1415 13.7668 20.014 13.1466 19.7601C12.5265 19.5063 11.9632 19.1313 11.4898 18.657C11.0164 18.1827 10.6424 17.6188 10.3897 16.9982C10.137 16.3775 10.0107 15.7127 10.0182 15.0427C10.0257 14.3726 10.1668 13.7108 10.4333 13.0959C10.6998 12.4811 11.0863 11.9256 11.5702 11.4621C12.054 10.9985 12.6255 10.6361 13.2512 10.3962C13.8769 10.1563 14.5441 10.0437 15.2139 10.0649Z" fill="#40AF3A"></path><path d="M38.7557 0H15.3011C6.98366 0 0.0762158 6.64135 -0.000594519 14.9588C-0.0168805 16.9531 0.361588 18.9309 1.11301 20.7783C1.86443 22.6257 2.97395 24.3061 4.37766 25.7228C5.78137 27.1395 7.45152 28.2645 9.29189 29.0329C11.1323 29.8014 13.1065 30.1981 15.1009 30.2002H38.7557C38.8927 30.2002 39.0242 30.1459 39.1213 30.0493C39.2185 29.9526 39.2734 29.8215 39.2742 29.6844V27.3664C39.2742 27.2289 39.2195 27.097 39.1223 26.9998C39.0251 26.9026 38.8932 26.8479 38.7557 26.8479H15.2627C8.67897 26.8479 3.23641 21.4849 3.35437 14.8902C3.41323 11.8125 4.67623 8.88047 6.87231 6.72336C9.0684 4.56625 12.0226 3.35596 15.1009 3.35222H38.7557C38.8932 3.35222 39.0251 3.2976 39.1223 3.20036C39.2195 3.10313 39.2742 2.97126 39.2742 2.83375V0.518469C39.2742 0.380963 39.2195 0.249088 39.1223 0.151856C39.0251 0.0546243 38.8932 0 38.7557 0Z" fill="#40AF3A"></path><path d="M30.9353 16.7777C31.0728 16.7777 31.2047 16.723 31.3019 16.6258C31.3992 16.5286 31.4538 16.3967 31.4538 16.2592V13.9412C31.4538 13.8732 31.4404 13.8059 31.4143 13.7432C31.3882 13.6804 31.35 13.6234 31.3018 13.5755C31.2536 13.5276 31.1964 13.4897 31.1335 13.4639C31.0706 13.4382 31.0033 13.4251 30.9353 13.4254H15.1014C14.8754 13.4163 14.6499 13.4529 14.4384 13.5331C14.2269 13.6133 14.0338 13.7354 13.8707 13.892C13.7076 14.0487 13.5778 14.2367 13.4891 14.4448C13.4004 14.6529 13.3547 14.8767 13.3547 15.1029C13.3547 15.3291 13.4004 15.553 13.4891 15.761C13.5778 15.9691 13.7076 16.1571 13.8707 16.3138C14.0338 16.4705 14.2269 16.5926 14.4384 16.6727C14.6499 16.7529 14.8754 16.7895 15.1014 16.7804H30.9353" fill="#40AF3A"></path><path d="M53.6053 24.8015V4.82812H68.2432V8.45192H57.2868V13.1675H66.9347V16.4128H57.2868V21.1777H68.2432V24.8015H53.6053Z" fill="#F4FFF8"></path><path d="M81.4216 30.2221V22.8319H81.1089C80.168 24.2858 78.5989 25.1417 76.6018 25.1417C73.2633 25.1417 70.3527 22.1461 70.3527 17.8118V17.7542C70.3527 13.4171 73.2633 10.3914 76.6018 10.3914C78.6537 10.3914 80.3106 11.3625 81.1665 12.9316H81.4738V10.737H84.7821V30.2139L81.4216 30.2221ZM81.4216 17.8118V17.7542C81.4216 15.1865 79.7949 13.387 77.5811 13.387C75.3673 13.387 73.7872 15.1865 73.7872 17.7542V17.8118C73.7872 20.3493 75.3838 22.1461 77.5811 22.1461C79.7784 22.1461 81.4216 20.3493 81.4216 17.8118Z" fill="#F4FFF8"></path><path d="M87.8984 19.1232V10.7344H91.2644V18.7226C91.2644 20.7197 92.3479 22.0337 94.2819 22.0337C96.2159 22.0337 97.8481 20.6347 97.8481 18.6376V10.7344H101.225V24.8016H97.8838V22.747H97.571C96.7481 24.0582 95.5164 25.1418 93.2889 25.1418C90.008 25.1418 87.8984 22.4617 87.8984 19.1232Z" fill="#F4FFF8"></path><path d="M104.018 24.8016V21.8911H106.698V13.6449H104.018V10.7344H110.094V21.8911H112.777V24.8016H104.018Z" fill="#F4FFF8"></path><path d="M110.209 4.68555V7.93901H106.327L110.209 4.68555Z" fill="#40AF3A"></path><path d="M123.075 21.8333L123.187 24.6863C122.457 24.9926 121.669 25.1385 120.877 25.1142C117.882 25.1142 115.97 23.4024 115.997 19.8637L116.038 13.6448H113.726V10.7342H116.038L116.066 6.61938H119.462L119.435 10.7342H123.113V13.6448H119.424L119.393 19.6936C119.393 21.5178 120.216 22.1186 121.676 22.1186C122.119 22.1284 122.559 22.0345 122.96 21.8443L123.075 21.8333Z" fill="#F4FFF8"></path><path d="M125.299 24.8016V21.8911H127.982V13.6449H125.299V10.7344H131.376V21.8911H134.059V24.8016H125.299Z" fill="#F4FFF8"></path><path d="M131.491 4.68555V7.93901H127.609L131.491 4.68555Z" fill="#40AF3A"></path><path d="M149.635 18.5799H138.821C138.994 20.7745 140.505 22.2037 142.56 22.2037C144.299 22.2037 145.555 21.2628 145.983 19.8939L149.522 20.0064C148.864 23.2022 146.011 25.1417 142.587 25.1417C138.508 25.1417 135.342 22.1241 135.342 17.7816V17.724C135.342 13.387 138.536 10.3914 142.618 10.3914C146.211 10.3914 149.635 12.7313 149.635 17.2494V18.5799ZM138.851 16.4127H146.068C145.898 14.4733 144.387 13.3019 142.587 13.3019C141.691 13.27 140.814 13.5697 140.125 14.1436C139.436 14.7175 138.982 15.5254 138.851 16.4127Z" fill="#F4FFF8"></path><path d="M151.231 19.7211L154.523 19.6662C154.523 21.1777 155.895 22.2613 157.977 22.2613C159.801 22.2613 160.887 21.6057 160.887 20.6647C160.887 19.8061 160.287 19.3507 158.66 19.0956L156.666 18.7801C153.069 18.2095 151.585 17.0684 151.585 14.871C151.585 12.4186 153.667 10.3914 157.692 10.3914C161.142 10.3914 164.196 12.1909 164.196 15.6419L160.904 15.7269C160.904 14.3005 159.62 13.2745 157.681 13.2745C155.939 13.2745 154.937 13.9877 154.937 14.9204C154.937 15.7187 155.508 16.0918 157.277 16.3743L159.274 16.6898C162.585 17.2028 164.24 18.4592 164.24 20.7415C164.24 23.3366 162.07 25.1307 157.905 25.1307C154.199 25.1417 151.231 23.1172 151.231 19.7211Z" fill="#F4FFF8"></path><path d="M173.098 14.8437V14.7861C173.098 8.67968 177.212 4.43042 182.682 4.43042C187.475 4.43042 191.271 7.56867 192.039 12.4763L188.161 12.5613C187.505 9.76599 185.365 8.10908 182.655 8.10908C179.286 8.10908 176.861 10.8194 176.861 14.7587V14.8437C176.861 18.7802 179.286 21.518 182.655 21.518C185.365 21.518 187.505 19.8364 188.161 17.0685L192.039 17.1535C191.271 22.0337 187.475 25.1994 182.682 25.1994C177.193 25.1994 173.098 20.9474 173.098 14.8437Z" fill="#F4FFF8"></path><path d="M194.426 24.8014V4.54272H197.819V24.8014H194.426Z" fill="#F4FFF8"></path><path d="M200.958 19.1232V10.7344H204.324V18.7226C204.324 20.7197 205.421 22.0337 207.341 22.0337C209.261 22.0337 210.907 20.6347 210.907 18.6376V10.7344H214.273V24.8016H210.954V22.747H210.641C209.818 24.0582 208.587 25.1418 206.362 25.1418C203.07 25.1418 200.958 22.4617 200.958 19.1232Z" fill="#F4FFF8"></path><path d="M221.156 22.5739H220.882V24.8014H217.538V4.54272H220.934V12.7038H221.208C222.149 11.2197 223.748 10.3913 225.745 10.3913C229.084 10.3913 231.995 13.3869 231.995 17.7239V17.7815C231.995 22.1186 229.084 25.1416 225.745 25.1416C223.696 25.1416 222.042 24.1403 221.156 22.5739ZM228.546 17.7815V17.7239C228.546 15.1563 226.95 13.3869 224.78 13.3869C222.555 13.3869 220.939 15.1563 220.939 17.7239V17.7815C220.939 20.3218 222.566 22.146 224.78 22.146C226.95 22.146 228.546 20.3218 228.546 17.7815Z" fill="#F4FFF8"></path></g><defs><clipPath id="clip0_111_187"><rect width="232" height="30.2221" fill="white"></rect></clipPath></defs></svg>