<svg xmlns="http://www.w3.org/2000/svg" width="163" height="33" viewBox="0 0 163 33" fill="none"><rect y="0.350464" width="163" height="32" rx="7" fill="#F4FFF8" fill-opacity="0.05"></rect><rect x="0.5" y="0.850464" width="162" height="31" rx="6.5" stroke="#F4FFF8" stroke-opacity="0.25"></rect><path d="M8.572 19.5585V19.5705H14.044V20.3505H7.72V19.7985C7.72 18.4785 8.596 17.7225 10.24 17.0505L11.248 16.6425C12.472 16.1385 13.168 15.7305 13.168 14.6625C13.168 13.3665 12.328 12.5745 10.924 12.5745C9.436 12.5745 8.464 13.4985 8.452 14.8665L7.624 14.8545C7.636 12.9705 9.052 11.7825 10.924 11.7825C12.94 11.7825 13.996 13.0425 13.996 14.6145C13.996 16.0665 13.036 16.7385 11.548 17.3505L10.696 17.6985C9.376 18.2385 8.572 18.7785 8.572 19.5585ZM18.4329 11.7825C20.2689 11.7825 21.7569 12.8505 21.7569 14.6145C21.7569 15.1785 21.5889 15.6345 21.3489 15.9945L18.4449 20.3505H17.5329V20.2185L19.5249 17.2665V17.1225C19.1529 17.2665 18.7329 17.3385 18.2889 17.3385C16.5489 17.3385 15.1209 16.3305 15.1209 14.6385C15.1209 12.8745 16.5969 11.7825 18.4329 11.7825ZM18.4329 16.5705C19.8609 16.5705 20.9169 15.8265 20.9169 14.6025C20.9169 13.3665 19.9209 12.5505 18.4329 12.5505C16.9569 12.5505 15.9369 13.3665 15.9369 14.6025C15.9369 15.8025 16.9569 16.5705 18.4329 16.5705ZM28.9764 20.5185C27.2364 20.5185 25.6164 19.3785 25.6164 17.3025L26.4564 17.2665C26.4564 18.7425 27.5244 19.7025 28.9764 19.7025C30.3324 19.7025 31.2804 19.0545 31.2804 17.9745C31.2804 17.2185 30.7404 16.8945 29.3724 16.6425L28.3884 16.4625C26.6844 16.1505 25.8204 15.5865 25.8204 14.3265C25.8204 13.0545 26.9604 11.7825 28.8444 11.7825C30.3804 11.7825 32.1084 12.8505 32.1084 14.9385L31.2684 14.9745C31.2684 13.5825 30.2004 12.5985 28.8444 12.5985C27.6204 12.5985 26.6484 13.3425 26.6484 14.3145C26.6484 15.1065 27.1884 15.3945 28.5804 15.6585L29.5524 15.8385C31.2204 16.1385 32.1204 16.7625 32.1204 17.9745C32.1204 19.4385 30.9564 20.5185 28.9764 20.5185ZM38.488 17.1225V17.6385H33.712C33.784 18.8985 34.612 19.7865 35.752 19.7865C36.676 19.7865 37.384 19.2105 37.612 18.3465L38.428 18.3705C38.152 19.6785 37.06 20.4945 35.752 20.4945C34.156 20.4945 32.908 19.2345 32.908 17.4225V17.3985C32.908 15.5865 34.168 14.3385 35.776 14.3385C37.072 14.3385 38.488 15.2505 38.488 17.1225ZM35.764 15.0465C34.672 15.0465 33.868 15.8505 33.736 16.9545H37.66C37.624 15.7185 36.712 15.0465 35.764 15.0465ZM40.423 22.6305H39.643V14.4825H40.411V15.5145H40.507C40.903 14.8185 41.683 14.3385 42.631 14.3385C44.071 14.3385 45.271 15.5865 45.271 17.3985V17.4225C45.271 19.2345 44.071 20.4945 42.631 20.4945C41.695 20.4945 40.927 20.0385 40.507 19.3545H40.423V22.6305ZM42.463 19.7745C43.615 19.7745 44.467 18.7785 44.467 17.4225V17.3985C44.467 16.0425 43.615 15.0585 42.463 15.0585C41.287 15.0585 40.423 16.0425 40.423 17.3985V17.4225C40.423 18.7785 41.287 19.7745 42.463 19.7745ZM50.3376 19.5585V19.5705H55.8096V20.3505H49.4856V19.7985C49.4856 18.4785 50.3616 17.7225 52.0056 17.0505L53.0136 16.6425C54.2376 16.1385 54.9336 15.7305 54.9336 14.6625C54.9336 13.3665 54.0936 12.5745 52.6896 12.5745C51.2016 12.5745 50.2296 13.4985 50.2176 14.8665L49.3896 14.8545C49.4016 12.9705 50.8176 11.7825 52.6896 11.7825C54.7056 11.7825 55.7616 13.0425 55.7616 14.6145C55.7616 16.0665 54.8016 16.7385 53.3136 17.3505L52.4616 17.6985C51.1416 18.2385 50.3376 18.7785 50.3376 19.5585ZM60.2945 20.5185C58.2545 20.5185 56.9585 19.0665 56.9585 16.5225V15.7785C56.9585 13.2345 58.2545 11.7825 60.2945 11.7825C62.3465 11.7825 63.6425 13.2345 63.6425 15.7785V16.5225C63.6425 19.0665 62.3465 20.5185 60.2945 20.5185ZM60.2945 19.7145C61.8785 19.7145 62.8025 18.5625 62.8025 16.5225V15.7665C62.8025 13.7265 61.8785 12.5745 60.2945 12.5745C58.7225 12.5745 57.7865 13.7265 57.7865 15.7665V16.5225C57.7865 18.5625 58.7225 19.7145 60.2945 19.7145ZM65.7712 19.5585V19.5705H71.2432V20.3505H64.9192V19.7985C64.9192 18.4785 65.7952 17.7225 67.4392 17.0505L68.4472 16.6425C69.6712 16.1385 70.3672 15.7305 70.3672 14.6625C70.3672 13.3665 69.5272 12.5745 68.1232 12.5745C66.6352 12.5745 65.6632 13.4985 65.6512 14.8665L64.8232 14.8545C64.8352 12.9705 66.2512 11.7825 68.1232 11.7825C70.1392 11.7825 71.1952 13.0425 71.1952 14.6145C71.1952 16.0665 70.2352 16.7385 68.7472 17.3505L67.8952 17.6985C66.5752 18.2385 65.7712 18.7785 65.7712 19.5585ZM75.7761 15.3945H75.8721C77.8281 15.3945 78.9561 16.5105 78.9561 17.9145C78.9561 19.3065 77.7801 20.5185 75.7401 20.5185C74.0241 20.5185 72.3561 19.5225 72.3561 17.5785L73.1961 17.5545C73.1961 18.9945 74.3841 19.7385 75.7281 19.7385C77.1801 19.7385 78.1281 18.9825 78.1281 17.8785C78.1281 16.8345 77.1801 16.1145 75.5601 16.1145H74.8401V15.0585L77.6841 12.9825V12.7305H72.5841V11.9505H78.7761V13.1025L75.7761 15.2745V15.3945ZM84.2782 20.3505H83.4382V11.9505H87.8182C89.3902 11.9505 90.1702 13.0425 90.1702 14.3745V14.4225C90.1702 15.7305 89.3902 16.7865 87.8182 16.7865H84.2782V20.3505ZM84.2782 12.7665V15.9705H87.7462C88.7302 15.9705 89.3662 15.4305 89.3662 14.4585V14.4105C89.3662 13.3785 88.7302 12.7665 87.7462 12.7665H84.2782ZM94.5315 20.5185C92.5995 20.5185 91.0995 19.2945 91.0995 17.3025V11.9505H91.9275V17.3025C91.9275 18.7305 92.9835 19.6905 94.5315 19.6905C96.0795 19.6905 97.1355 18.7305 97.1355 17.3025V11.9505H97.9635V17.3025C97.9635 19.2945 96.4635 20.5185 94.5315 20.5185ZM100.415 20.3505H99.5749V11.9505H103.955C105.527 11.9505 106.307 12.9945 106.307 14.3025V14.3505C106.307 15.2145 105.935 16.0065 105.011 16.3905V16.4745C105.503 16.7385 105.803 17.1345 105.887 17.8185L106.007 18.8745C106.079 19.5945 106.235 19.8825 106.379 20.2065V20.3505H105.527C105.347 19.9305 105.239 19.6185 105.155 18.8865L105.035 17.9625C104.915 16.9545 104.291 16.7265 103.691 16.7265H100.415V20.3505ZM100.415 12.7665V15.9105H103.871C104.855 15.9105 105.503 15.3465 105.503 14.3985V14.3625C105.503 13.3545 104.867 12.7665 103.883 12.7665H100.415ZM107.745 22.1985H107.289V22.0905L108.009 20.3505H107.637V18.9945H108.549V20.2785L107.745 22.1985ZM119.105 20.3505H113.333V11.9505H114.173V19.5225H119.105V20.3505ZM122.059 13.0305H121.099V11.9145H122.059V13.0305ZM123.271 20.3505H119.923V19.6425H121.207V15.1905H119.923V14.4825H121.987V19.6425H123.271V20.3505ZM127.264 19.6545H127.312L127.324 20.3505C127.132 20.4225 126.952 20.4825 126.64 20.4825C125.404 20.4825 124.744 19.7505 124.756 18.3825L124.768 15.1905H123.676V14.4825H124.768L124.78 12.7785H125.56L125.548 14.4825H127.3V15.1905H125.548L125.536 18.3585C125.536 19.3425 125.944 19.7505 126.772 19.7505C126.988 19.7505 127.168 19.7025 127.264 19.6545ZM129.334 20.3505H128.542V11.8305H129.334V15.3465H129.43C129.802 14.7825 130.426 14.3385 131.374 14.3385C132.802 14.3385 133.666 15.5145 133.666 16.9185V20.3505H132.886V16.9785C132.886 15.9105 132.274 15.0705 131.218 15.0705C130.138 15.0705 129.334 15.8865 129.334 16.9545V20.3505ZM137.023 13.0305H136.063V11.9145H137.023V13.0305ZM138.235 20.3505H134.887V19.6425H136.171V15.1905H134.887V14.4825H136.951V19.6425H138.235V20.3505ZM141.437 20.4945C140.021 20.4945 139.157 19.3185 139.157 17.9145V14.4825H139.937V17.8545C139.937 18.9225 140.549 19.7505 141.605 19.7505C142.661 19.7505 143.477 18.9465 143.477 17.8665V14.4825H144.257V20.3505H143.477V19.4745H143.393C142.997 20.0385 142.385 20.4945 141.437 20.4945ZM152.535 14.3385C153.879 14.3385 154.695 15.5145 154.695 16.9185V20.3505H153.915V16.9785C153.915 15.9105 153.375 15.0705 152.379 15.0705C151.371 15.0705 150.627 15.8865 150.627 16.9545V20.3505H149.847V16.9785C149.847 15.9105 149.295 15.0705 148.299 15.0705C147.315 15.0705 146.559 15.8865 146.559 16.9545V20.3505H145.791V14.4825H146.559V15.3225H146.655C147.027 14.7585 147.603 14.3385 148.491 14.3385C149.379 14.3385 150.015 14.8545 150.351 15.6105H150.483C150.879 14.8785 151.515 14.3385 152.535 14.3385Z" fill="white"></path></svg>